<svg viewBox="0 0 520 320" xmlns="http://www.w3.org/2000/svg">
  <defs>
    <linearGradient id="bg" x1="0" y1="0" x2="1" y2="1">
      <stop offset="0%" stop-color="#dbeafe"/>
      <stop offset="100%" stop-color="#eff6ff"/>
    </linearGradient>
  </defs>
  <rect width="520" height="320" rx="16" fill="url(#bg)"/>
  <g transform="translate(28,28)">
    <rect width="280" height="180" rx="12" fill="#fff" stroke="#e5e7eb"/>
    <rect x="12" y="20" width="180" height="12" rx="6" fill="#d1d5db"/>
    <rect x="12" y="44" width="220" height="10" rx="5" fill="#e5e7eb"/>
    <rect x="12" y="64" width="220" height="10" rx="5" fill="#e5e7eb"/>
    <rect x="12" y="84" width="180" height="10" rx="5" fill="#e5e7eb"/>
    <rect x="12" y="114" width="84" height="28" rx="6" fill="#2979FF" opacity="0.2"/>
    <rect x="104" y="114" width="84" height="28" rx="6" fill="#6b7280" opacity="0.12"/>
  </g>
  <g transform="translate(330,40)">
    <rect width="160" height="100" rx="12" fill="#fff" stroke="#e5e7eb"/>
    <rect x="16" y="16" width="48" height="48" rx="8" fill="#e0e7ff"/>
    <rect x="72" y="18" width="72" height="10" rx="5" fill="#d1d5db"/>
    <rect x="72" y="36" width="72" height="10" rx="5" fill="#e5e7eb"/>
    <rect x="72" y="54" width="56" height="10" rx="5" fill="#e5e7eb"/>
    <rect x="16" y="72" width="60" height="12" rx="6" fill="#2979FF" opacity="0.25"/>
  </g>
  <g transform="translate(60,230)">
    <rect width="400" height="56" rx="12" fill="#fff" stroke="#e5e7eb"/>
    <circle cx="28" cy="28" r="10" fill="#10b981" opacity="0.35"/>
    <rect x="52" y="18" width="180" height="10" rx="5" fill="#d1d5db"/>
    <rect x="52" y="36" width="120" height="8" rx="4" fill="#e5e7eb"/>
    <rect x="320" y="16" width="64" height="24" rx="6" fill="#2979FF" opacity="0.25"/>
  </g>
</svg>

